<mxfile><diagram name="Seite-1" id="EkTeIHQpuFtEgdfZstaj"><mxGraphModel dx="898" dy="750" grid="1" gridSize="10" guides="1" tooltips="1" connect="1" arrows="1" fold="1" page="0" pageScale="1" pageWidth="827" pageHeight="1169" background="#000000" math="0" shadow="0"><root><mxCell id="0"/><mxCell id="1" parent="0"/><object placeholders="1" c4Name="Catena-X Association" c4Type="Person" c4Description="Association for certification and standardization of Catena-X&#10;" label="&lt;font style=&quot;font-size: 16px&quot;&gt;&lt;b&gt;%c4Name%&lt;/b&gt;&lt;/font&gt;&lt;div&gt;[%c4Type%]&lt;/div&gt;&lt;br&gt;&lt;div&gt;&lt;font style=&quot;font-size: 11px&quot;&gt;&lt;font color=&quot;#cccccc&quot;&gt;%c4Description%&lt;/font&gt;&lt;/div&gt;" id="HoUhUmzW9KH7zbd96LEA-1"><mxCell style="html=1;fontSize=11;dashed=0;whiteSpace=wrap;fillColor=#083F75;strokeColor=#06315C;fontColor=#ffffff;shape=mxgraph.c4.person2;align=center;metaEdit=1;points=[[0.5,0,0],[1,0.5,0],[1,0.75,0],[0.75,1,0],[0.5,1,0],[0.25,1,0],[0,0.75,0],[0,0.5,0]];resizable=0;" parent="1" vertex="1"><mxGeometry x="400" y="-50" width="200" height="180" as="geometry"/></mxCell></object><object placeholders="1" c4Name="Tractus-X" c4Type="Person" c4Description="Open-Source Community that maintains FOSS Components compliant to Catena-X Standards" label="&lt;font style=&quot;font-size: 16px&quot;&gt;&lt;b&gt;%c4Name%&lt;/b&gt;&lt;/font&gt;&lt;div&gt;[%c4Type%]&lt;/div&gt;&lt;br&gt;&lt;div&gt;&lt;font style=&quot;font-size: 11px&quot;&gt;&lt;font color=&quot;#cccccc&quot;&gt;%c4Description%&lt;/font&gt;&lt;/div&gt;" id="HoUhUmzW9KH7zbd96LEA-2"><mxCell style="html=1;fontSize=11;dashed=0;whiteSpace=wrap;fillColor=#6C6477;strokeColor=#4D4D4D;fontColor=#ffffff;shape=mxgraph.c4.person2;align=center;metaEdit=1;points=[[0.5,0,0],[1,0.5,0],[1,0.75,0],[0.75,1,0],[0.5,1,0],[0.25,1,0],[0,0.75,0],[0,0.5,0]];resizable=0;" parent="1" vertex="1"><mxGeometry x="1100" y="-50" width="200" height="180" as="geometry"/></mxCell></object><object c4Name="Catena-X Environment" c4Type="SystemScopeBoundary" c4Application="system" label="&lt;font style=&quot;font-size: 16px&quot;&gt;&lt;b&gt;&lt;div style=&quot;text-align: left&quot;&gt;%c4Name%&lt;/div&gt;&lt;/b&gt;&lt;/font&gt;&lt;div style=&quot;text-align: left&quot;&gt;[%c4Application%]&lt;/div&gt;" placeholders="1" id="So58qvO-gp38-perJs6D-1"><mxCell style="rounded=1;fontSize=11;whiteSpace=wrap;html=1;dashed=1;arcSize=20;fillColor=none;strokeColor=#FFFFFF;fontColor=#FFFFFF;labelBackgroundColor=none;align=left;verticalAlign=bottom;labelBorderColor=default;spacingTop=0;spacing=10;dashPattern=8 4;metaEdit=1;rotatable=0;perimeter=rectanglePerimeter;labelPadding=0;allowArrows=0;connectable=0;expand=0;recursiveResize=0;editable=1;pointerEvents=0;absoluteArcSize=1;points=[[0.25,0,0],[0.5,0,0],[0.75,0,0],[1,0.25,0],[1,0.5,0],[1,0.75,0],[0.75,1,0],[0.5,1,0],[0.25,1,0],[0,0.75,0],[0,0.5,0],[0,0.25,0]];" parent="1" vertex="1"><mxGeometry x="70" y="-90" width="1490" height="1820" as="geometry"/></mxCell></object><object placeholders="1" c4Name="Catena-X Partner Consumer" c4Type="ContainerScopeBoundary" c4Application="ENTERPRISE" label="&lt;font style=&quot;font-size: 16px&quot;&gt;&lt;b&gt;&lt;div style=&quot;text-align: left&quot;&gt;%c4Name%&lt;/div&gt;&lt;/b&gt;&lt;/font&gt;&lt;div style=&quot;text-align: left&quot;&gt;[%c4Application%]&lt;/div&gt;" id="So58qvO-gp38-perJs6D-2"><mxCell style="rounded=1;fontSize=11;whiteSpace=wrap;html=1;dashed=1;arcSize=20;fillColor=none;strokeColor=#FFFFFF;fontColor=#FFFFFF;labelBackgroundColor=none;align=left;verticalAlign=bottom;labelBorderColor=default;spacingTop=0;spacing=10;dashPattern=8 4;metaEdit=1;rotatable=0;perimeter=rectanglePerimeter;labelPadding=0;allowArrows=0;connectable=0;expand=0;recursiveResize=0;editable=1;pointerEvents=0;absoluteArcSize=1;points=[[0.25,0,0],[0.5,0,0],[0.75,0,0],[1,0.25,0],[1,0.5,0],[1,0.75,0],[0.75,1,0],[0.5,1,0],[0.25,1,0],[0,0.75,0],[0,0.5,0],[0,0.25,0]];" parent="1" vertex="1"><mxGeometry x="100" y="180" width="690" height="950" as="geometry"/></mxCell></object><object placeholders="1" c4Name="Catena-X Partner Provider" c4Type="ContainerScopeBoundary" c4Application="ENTERPRISE" label="&lt;font style=&quot;font-size: 16px&quot;&gt;&lt;b&gt;&lt;div style=&quot;text-align: left&quot;&gt;%c4Name%&lt;/div&gt;&lt;/b&gt;&lt;/font&gt;&lt;div style=&quot;text-align: left&quot;&gt;[%c4Application%]&lt;/div&gt;" id="So58qvO-gp38-perJs6D-3"><mxCell style="rounded=1;fontSize=11;whiteSpace=wrap;html=1;dashed=1;arcSize=20;fillColor=none;strokeColor=#FFFFFF;fontColor=#FFFFFF;labelBackgroundColor=none;align=left;verticalAlign=bottom;labelBorderColor=default;spacingTop=0;spacing=10;dashPattern=8 4;metaEdit=1;rotatable=0;perimeter=rectanglePerimeter;labelPadding=0;allowArrows=0;connectable=0;expand=0;recursiveResize=0;editable=1;pointerEvents=0;absoluteArcSize=1;points=[[0.25,0,0],[0.5,0,0],[0.75,0,0],[1,0.25,0],[1,0.5,0],[1,0.75,0],[0.75,1,0],[0.5,1,0],[0.25,1,0],[0,0.75,0],[0,0.5,0],[0,0.25,0]];" parent="1" vertex="1"><mxGeometry x="827" y="180" width="703" height="1430" as="geometry"/></mxCell></object><object placeholders="1" c4Name="EDC" c4Type="system" c4Description="" label="&lt;font style=&quot;font-size: 16px&quot;&gt;&lt;b&gt;%c4Name%&lt;/b&gt;&lt;/font&gt;&lt;div&gt;[%c4Type%]&lt;/div&gt;&lt;br&gt;&lt;div&gt;&lt;font style=&quot;font-size: 11px&quot;&gt;&lt;font color=&quot;#cccccc&quot;&gt;%c4Description%&lt;/font&gt;&lt;/div&gt;" id="So58qvO-gp38-perJs6D-4"><mxCell style="rounded=1;whiteSpace=wrap;html=1;labelBackgroundColor=none;fillColor=#1061B0;fontColor=#ffffff;align=center;arcSize=10;strokeColor=#00CC66;metaEdit=1;resizable=0;points=[[0.25,0,0],[0.5,0,0],[0.75,0,0],[1,0.25,0],[1,0.5,0],[1,0.75,0],[0.75,1,0],[0.5,1,0],[0.25,1,0],[0,0.75,0],[0,0.5,0],[0,0.25,0]];strokeWidth=4;" parent="1" vertex="1"><mxGeometry x="130" y="470" width="240" height="120" as="geometry"/></mxCell></object><mxCell id="4" style="edgeStyle=none;html=1;exitX=0.25;exitY=1;exitDx=0;exitDy=0;exitPerimeter=0;strokeColor=#FFFFFF;entryX=0.25;entryY=0;entryDx=0;entryDy=0;entryPerimeter=0;" edge="1" parent="1" source="So58qvO-gp38-perJs6D-5" target="3"><mxGeometry relative="1" as="geometry"><mxPoint x="550" y="1216.6666259765625" as="targetPoint"/></mxGeometry></mxCell><object placeholders="1" c4Name="Business Application" c4Type="system" c4Description="" label="&lt;font style=&quot;font-size: 16px&quot;&gt;&lt;b&gt;%c4Name%&lt;/b&gt;&lt;/font&gt;&lt;div&gt;[%c4Type%]&lt;/div&gt;&lt;br&gt;&lt;div&gt;&lt;font style=&quot;font-size: 11px&quot;&gt;&lt;font color=&quot;#cccccc&quot;&gt;%c4Description%&lt;/font&gt;&lt;/div&gt;" id="So58qvO-gp38-perJs6D-5"><mxCell style="rounded=1;whiteSpace=wrap;html=1;labelBackgroundColor=none;fillColor=#1061B0;fontColor=#ffffff;align=center;arcSize=10;strokeColor=#0D5091;metaEdit=1;resizable=0;points=[[0.25,0,0],[0.5,0,0],[0.75,0,0],[1,0.25,0],[1,0.5,0],[1,0.75,0],[0.75,1,0],[0.5,1,0],[0.25,1,0],[0,0.75,0],[0,0.5,0],[0,0.25,0]];" parent="1" vertex="1"><mxGeometry x="492" y="530" width="240" height="120" as="geometry"/></mxCell></object><object placeholders="1" c4Name="EDC" c4Type="system" c4Description="" label="&lt;font style=&quot;font-size: 16px&quot;&gt;&lt;b&gt;%c4Name%&lt;/b&gt;&lt;/font&gt;&lt;div&gt;[%c4Type%]&lt;/div&gt;&lt;br&gt;&lt;div&gt;&lt;font style=&quot;font-size: 11px&quot;&gt;&lt;font color=&quot;#cccccc&quot;&gt;%c4Description%&lt;/font&gt;&lt;/div&gt;" id="So58qvO-gp38-perJs6D-7"><mxCell style="rounded=1;whiteSpace=wrap;html=1;labelBackgroundColor=none;fillColor=#1061B0;fontColor=#ffffff;align=center;arcSize=10;strokeColor=#00CC66;metaEdit=1;resizable=0;points=[[0.25,0,0],[0.5,0,0],[0.75,0,0],[1,0.25,0],[1,0.5,0],[1,0.75,0],[0.75,1,0],[0.5,1,0],[0.25,1,0],[0,0.75,0],[0,0.5,0],[0,0.25,0]];strokeWidth=4;" parent="1" vertex="1"><mxGeometry x="900" y="480" width="240" height="120" as="geometry"/></mxCell></object><mxCell id="So58qvO-gp38-perJs6D-8" style="edgeStyle=orthogonalEdgeStyle;rounded=0;orthogonalLoop=1;jettySize=auto;html=1;exitX=1;exitY=0.25;exitDx=0;exitDy=0;exitPerimeter=0;entryX=0;entryY=0.167;entryDx=0;entryDy=0;entryPerimeter=0;startArrow=classic;startFill=1;strokeColor=#FFFFFF;fontColor=#FFFFFF;" parent="1" source="So58qvO-gp38-perJs6D-4" target="So58qvO-gp38-perJs6D-7" edge="1"><mxGeometry relative="1" as="geometry"/></mxCell><mxCell id="So58qvO-gp38-perJs6D-9" value="communicates" style="edgeLabel;html=1;align=center;verticalAlign=middle;resizable=0;points=[];labelBackgroundColor=#000000;fontColor=#FFFFFF;" parent="So58qvO-gp38-perJs6D-8" vertex="1" connectable="0"><mxGeometry x="0.1321" relative="1" as="geometry"><mxPoint as="offset"/></mxGeometry></mxCell><mxCell id="So58qvO-gp38-perJs6D-10" style="edgeStyle=orthogonalEdgeStyle;rounded=0;orthogonalLoop=1;jettySize=auto;html=1;exitX=1;exitY=0.75;exitDx=0;exitDy=0;exitPerimeter=0;entryX=0;entryY=0.25;entryDx=0;entryDy=0;entryPerimeter=0;startArrow=classic;startFill=1;strokeColor=#FFFFFF;fontColor=#FFFFFF;" parent="1" source="So58qvO-gp38-perJs6D-4" target="So58qvO-gp38-perJs6D-5" edge="1"><mxGeometry relative="1" as="geometry"/></mxCell><mxCell id="So58qvO-gp38-perJs6D-11" value="Uses" style="edgeLabel;html=1;align=center;verticalAlign=middle;resizable=0;points=[];" parent="So58qvO-gp38-perJs6D-10" vertex="1" connectable="0"><mxGeometry x="0.1636" y="-1" relative="1" as="geometry"><mxPoint as="offset"/></mxGeometry></mxCell><object placeholders="1" c4Name="Asset Administration Shell Registry / Digital Twin Registry" c4Type="system" c4Description="" label="&lt;font style=&quot;font-size: 16px&quot;&gt;&lt;b&gt;%c4Name%&lt;/b&gt;&lt;/font&gt;&lt;div&gt;[%c4Type%]&lt;/div&gt;&lt;br&gt;&lt;div&gt;&lt;font style=&quot;font-size: 11px&quot;&gt;&lt;font color=&quot;#cccccc&quot;&gt;%c4Description%&lt;/font&gt;&lt;/div&gt;" id="So58qvO-gp38-perJs6D-16"><mxCell style="rounded=1;whiteSpace=wrap;html=1;labelBackgroundColor=none;fillColor=#1061B0;fontColor=#ffffff;align=center;arcSize=10;strokeColor=#FF9933;metaEdit=1;resizable=0;points=[[0.25,0,0],[0.5,0,0],[0.75,0,0],[1,0.25,0],[1,0.5,0],[1,0.75,0],[0.75,1,0],[0.5,1,0],[0.25,1,0],[0,0.75,0],[0,0.5,0],[0,0.25,0]];strokeWidth=4;" parent="1" vertex="1"><mxGeometry x="900" y="700" width="240" height="120" as="geometry"/></mxCell></object><mxCell id="So58qvO-gp38-perJs6D-19" style="edgeStyle=orthogonalEdgeStyle;rounded=0;orthogonalLoop=1;jettySize=auto;html=1;exitX=0.5;exitY=1;exitDx=0;exitDy=0;exitPerimeter=0;startArrow=classic;startFill=1;strokeColor=#FFFFFF;" parent="1" source="So58qvO-gp38-perJs6D-17" target="So58qvO-gp38-perJs6D-18" edge="1"><mxGeometry relative="1" as="geometry"/></mxCell><mxCell id="So58qvO-gp38-perJs6D-20" value="Uses" style="edgeLabel;html=1;align=center;verticalAlign=middle;resizable=0;points=[];labelBackgroundColor=#000000;fontColor=#FFFFFF;" parent="So58qvO-gp38-perJs6D-19" vertex="1" connectable="0"><mxGeometry x="-0.2833" y="-1" relative="1" as="geometry"><mxPoint x="21" y="7" as="offset"/></mxGeometry></mxCell><object placeholders="1" c4Name="Asset Administration Shell Server or Repository" c4Type="system" c4Description="" label="&lt;font style=&quot;font-size: 16px&quot;&gt;&lt;b&gt;%c4Name%&lt;/b&gt;&lt;/font&gt;&lt;div&gt;[%c4Type%]&lt;/div&gt;&lt;br&gt;&lt;div&gt;&lt;font style=&quot;font-size: 11px&quot;&gt;&lt;font color=&quot;#cccccc&quot;&gt;%c4Description%&lt;/font&gt;&lt;/div&gt;" id="So58qvO-gp38-perJs6D-17"><mxCell style="rounded=1;whiteSpace=wrap;html=1;labelBackgroundColor=none;fillColor=#1061B0;fontColor=#ffffff;align=center;arcSize=10;strokeColor=#FF9933;metaEdit=1;resizable=0;points=[[0.25,0,0],[0.5,0,0],[0.75,0,0],[1,0.25,0],[1,0.5,0],[1,0.75,0],[0.75,1,0],[0.5,1,0],[0.25,1,0],[0,0.75,0],[0,0.5,0],[0,0.25,0]];strokeWidth=4;" parent="1" vertex="1"><mxGeometry x="900" y="900" width="240" height="120" as="geometry"/></mxCell></object><object placeholders="1" c4Name="Any Source System for Data" c4Type="system" c4Description="" label="&lt;font style=&quot;font-size: 16px&quot;&gt;&lt;b&gt;%c4Name%&lt;/b&gt;&lt;/font&gt;&lt;div&gt;[%c4Type%]&lt;/div&gt;&lt;br&gt;&lt;div&gt;&lt;font style=&quot;font-size: 11px&quot;&gt;&lt;font color=&quot;#cccccc&quot;&gt;%c4Description%&lt;/font&gt;&lt;/div&gt;" id="So58qvO-gp38-perJs6D-18"><mxCell style="rounded=1;whiteSpace=wrap;html=1;labelBackgroundColor=none;fillColor=#1061B0;fontColor=#ffffff;align=center;arcSize=10;strokeColor=#0D5091;metaEdit=1;resizable=0;points=[[0.25,0,0],[0.5,0,0],[0.75,0,0],[1,0.25,0],[1,0.5,0],[1,0.75,0],[0.75,1,0],[0.5,1,0],[0.25,1,0],[0,0.75,0],[0,0.5,0],[0,0.25,0]];" parent="1" vertex="1"><mxGeometry x="900" y="1140" width="240" height="120" as="geometry"/></mxCell></object><object placeholders="1" c4Name="Business Application aaS" c4Type="system" c4Description="" label="&lt;font style=&quot;font-size: 16px&quot;&gt;&lt;b&gt;%c4Name%&lt;/b&gt;&lt;/font&gt;&lt;div&gt;[%c4Type%]&lt;/div&gt;&lt;br&gt;&lt;div&gt;&lt;font style=&quot;font-size: 11px&quot;&gt;&lt;font color=&quot;#cccccc&quot;&gt;%c4Description%&lt;/font&gt;&lt;/div&gt;" id="So58qvO-gp38-perJs6D-14"><mxCell style="rounded=1;whiteSpace=wrap;html=1;labelBackgroundColor=none;fillColor=#1061B0;fontColor=#ffffff;align=center;arcSize=10;strokeColor=#0D5091;metaEdit=1;resizable=0;points=[[0.25,0,0],[0.5,0,0],[0.75,0,0],[1,0.25,0],[1,0.5,0],[1,0.75,0],[0.75,1,0],[0.5,1,0],[0.25,1,0],[0,0.75,0],[0,0.5,0],[0,0.25,0]];" parent="1" vertex="1"><mxGeometry x="480" y="240" width="240" height="120" as="geometry"/></mxCell></object><mxCell id="So58qvO-gp38-perJs6D-22" style="edgeStyle=orthogonalEdgeStyle;rounded=0;orthogonalLoop=1;jettySize=auto;html=1;exitX=1;exitY=0.5;exitDx=0;exitDy=0;exitPerimeter=0;entryX=0;entryY=0.5;entryDx=0;entryDy=0;entryPerimeter=0;startArrow=classic;startFill=1;strokeColor=#FFFFFF;fontColor=#FFFFFF;" parent="1" source="So58qvO-gp38-perJs6D-5" target="So58qvO-gp38-perJs6D-16" edge="1"><mxGeometry relative="1" as="geometry"/></mxCell><mxCell id="So58qvO-gp38-perJs6D-23" value="Uses" style="edgeLabel;html=1;align=center;verticalAlign=middle;resizable=0;points=[];labelBackgroundColor=#000000;fontColor=#FFFFFF;" parent="So58qvO-gp38-perJs6D-22" vertex="1" connectable="0"><mxGeometry x="0.64" y="1" relative="1" as="geometry"><mxPoint x="13" y="-9" as="offset"/></mxGeometry></mxCell><mxCell id="So58qvO-gp38-perJs6D-24" style="edgeStyle=orthogonalEdgeStyle;rounded=0;orthogonalLoop=1;jettySize=auto;html=1;exitX=0.5;exitY=1;exitDx=0;exitDy=0;exitPerimeter=0;entryX=0;entryY=0.5;entryDx=0;entryDy=0;entryPerimeter=0;startArrow=classic;startFill=1;strokeColor=#FFFFFF;fontColor=#FFFFFF;" parent="1" source="So58qvO-gp38-perJs6D-5" target="So58qvO-gp38-perJs6D-17" edge="1"><mxGeometry relative="1" as="geometry"/></mxCell><mxCell id="So58qvO-gp38-perJs6D-25" value="Uses" style="edgeLabel;html=1;align=center;verticalAlign=middle;resizable=0;points=[];labelBackgroundColor=#000000;fontColor=#FFFFFF;" parent="So58qvO-gp38-perJs6D-24" vertex="1" connectable="0"><mxGeometry x="0.318" y="3" relative="1" as="geometry"><mxPoint x="8" y="-7" as="offset"/></mxGeometry></mxCell><mxCell id="So58qvO-gp38-perJs6D-29" value="" style="group" parent="1" vertex="1" connectable="0"><mxGeometry x="125" y="210" width="650" height="220" as="geometry"/></mxCell><object placeholders="1" c4Name="EDCaaS" c4Type="system" c4Description="" label="&lt;font style=&quot;font-size: 16px&quot;&gt;&lt;b&gt;%c4Name%&lt;/b&gt;&lt;/font&gt;&lt;div&gt;[%c4Type%]&lt;/div&gt;&lt;br&gt;&lt;div&gt;&lt;font style=&quot;font-size: 11px&quot;&gt;&lt;font color=&quot;#cccccc&quot;&gt;%c4Description%&lt;/font&gt;&lt;/div&gt;" id="So58qvO-gp38-perJs6D-30"><mxCell style="rounded=1;whiteSpace=wrap;html=1;labelBackgroundColor=none;fillColor=#1061B0;fontColor=#ffffff;align=center;arcSize=10;strokeColor=#0D5091;metaEdit=1;resizable=0;points=[[0.25,0,0],[0.5,0,0],[0.75,0,0],[1,0.25,0],[1,0.5,0],[1,0.75,0],[0.75,1,0],[0.5,1,0],[0.25,1,0],[0,0.75,0],[0,0.5,0],[0,0.25,0]];" parent="So58qvO-gp38-perJs6D-29" vertex="1"><mxGeometry x="20" y="30" width="240" height="120" as="geometry"/></mxCell></object><object placeholders="1" c4Name="Catena-X SaaS Consumer (optional)" c4Type="ContainerScopeBoundary" c4Application="ENTERPRISE" label="&lt;font style=&quot;font-size: 16px&quot;&gt;&lt;b&gt;&lt;div style=&quot;text-align: left&quot;&gt;%c4Name%&lt;/div&gt;&lt;/b&gt;&lt;/font&gt;&lt;div style=&quot;text-align: left&quot;&gt;[%c4Application%]&lt;/div&gt;" id="So58qvO-gp38-perJs6D-32"><mxCell style="rounded=1;fontSize=11;whiteSpace=wrap;html=1;dashed=1;arcSize=20;fillColor=none;strokeColor=#FFFFFF;fontColor=#FFFFFF;labelBackgroundColor=none;align=left;verticalAlign=bottom;labelBorderColor=default;spacingTop=0;spacing=10;dashPattern=8 4;metaEdit=1;rotatable=0;perimeter=rectanglePerimeter;labelPadding=0;allowArrows=0;connectable=0;expand=0;recursiveResize=0;editable=1;pointerEvents=0;absoluteArcSize=1;points=[[0.25,0,0],[0.5,0,0],[0.75,0,0],[1,0.25,0],[1,0.5,0],[1,0.75,0],[0.75,1,0],[0.5,1,0],[0.25,1,0],[0,0.75,0],[0,0.5,0],[0,0.25,0]];" parent="1" vertex="1"><mxGeometry x="130" y="210" width="650" height="220" as="geometry"/></mxCell></object><object placeholders="1" c4Name="Catena-X SaaS Provider (optional)" c4Type="ContainerScopeBoundary" c4Application="ENTERPRISE" label="&lt;font style=&quot;font-size: 16px&quot;&gt;&lt;b&gt;&lt;div style=&quot;text-align: left&quot;&gt;%c4Name%&lt;/div&gt;&lt;/b&gt;&lt;/font&gt;&lt;div style=&quot;text-align: left&quot;&gt;[%c4Application%]&lt;/div&gt;" id="So58qvO-gp38-perJs6D-12"><mxCell style="rounded=1;fontSize=11;whiteSpace=wrap;html=1;dashed=1;arcSize=20;fillColor=none;strokeColor=#FFFFFF;fontColor=#FFFFFF;labelBackgroundColor=none;align=left;verticalAlign=bottom;labelBorderColor=default;spacingTop=0;spacing=10;dashPattern=8 4;metaEdit=1;rotatable=0;perimeter=rectanglePerimeter;labelPadding=0;allowArrows=0;connectable=0;expand=0;recursiveResize=0;editable=1;pointerEvents=0;absoluteArcSize=1;points=[[0.25,0,0],[0.5,0,0],[0.75,0,0],[1,0.25,0],[1,0.5,0],[1,0.75,0],[0.75,1,0],[0.5,1,0],[0.25,1,0],[0,0.75,0],[0,0.5,0],[0,0.25,0]];" parent="1" vertex="1"><mxGeometry x="853.5" y="210" width="650" height="220" as="geometry"/></mxCell></object><object placeholders="1" c4Name="Asset Administration Shell Registry / Digital Twin Registry aaS" c4Type="system" c4Description="" label="&lt;font style=&quot;font-size: 16px&quot;&gt;&lt;b&gt;%c4Name%&lt;/b&gt;&lt;/font&gt;&lt;div&gt;[%c4Type%]&lt;/div&gt;&lt;br&gt;&lt;div&gt;&lt;font style=&quot;font-size: 11px&quot;&gt;&lt;font color=&quot;#cccccc&quot;&gt;%c4Description%&lt;/font&gt;&lt;/div&gt;" id="So58qvO-gp38-perJs6D-33"><mxCell style="rounded=1;whiteSpace=wrap;html=1;labelBackgroundColor=none;fillColor=#1061B0;fontColor=#ffffff;align=center;arcSize=10;strokeColor=#0D5091;metaEdit=1;resizable=0;points=[[0.25,0,0],[0.5,0,0],[0.75,0,0],[1,0.25,0],[1,0.5,0],[1,0.75,0],[0.75,1,0],[0.5,1,0],[0.25,1,0],[0,0.75,0],[0,0.5,0],[0,0.25,0]];" parent="1" vertex="1"><mxGeometry x="880" y="240" width="240" height="120" as="geometry"/></mxCell></object><object placeholders="1" c4Name="Asset Administration Shell Server or Repository aaS" c4Type="system" c4Description="" label="&lt;font style=&quot;font-size: 16px&quot;&gt;&lt;b&gt;%c4Name%&lt;/b&gt;&lt;/font&gt;&lt;div&gt;[%c4Type%]&lt;/div&gt;&lt;br&gt;&lt;div&gt;&lt;font style=&quot;font-size: 11px&quot;&gt;&lt;font color=&quot;#cccccc&quot;&gt;%c4Description%&lt;/font&gt;&lt;/div&gt;" id="So58qvO-gp38-perJs6D-34"><mxCell style="rounded=1;whiteSpace=wrap;html=1;labelBackgroundColor=none;fillColor=#1061B0;fontColor=#ffffff;align=center;arcSize=10;strokeColor=#0D5091;metaEdit=1;resizable=0;points=[[0.25,0,0],[0.5,0,0],[0.75,0,0],[1,0.25,0],[1,0.5,0],[1,0.75,0],[0.75,1,0],[0.5,1,0],[0.25,1,0],[0,0.75,0],[0,0.5,0],[0,0.25,0]];" parent="1" vertex="1"><mxGeometry x="1210" y="240" width="240" height="120" as="geometry"/></mxCell></object><object placeholders="1" c4Name="Catena-X Operating Company" c4Type="ContainerScopeBoundary" c4Application="ENTERPRISE" label="&lt;font style=&quot;font-size: 16px&quot;&gt;&lt;b&gt;&lt;div style=&quot;text-align: left&quot;&gt;%c4Name%&lt;/div&gt;&lt;/b&gt;&lt;/font&gt;&lt;div style=&quot;text-align: left&quot;&gt;[%c4Application%]&lt;/div&gt;" id="So58qvO-gp38-perJs6D-35"><mxCell style="rounded=1;fontSize=11;whiteSpace=wrap;html=1;dashed=1;arcSize=20;fillColor=none;strokeColor=#FFFFFF;fontColor=#FFFFFF;labelBackgroundColor=none;align=left;verticalAlign=bottom;labelBorderColor=default;spacingTop=0;spacing=10;dashPattern=8 4;metaEdit=1;rotatable=0;perimeter=rectanglePerimeter;labelPadding=0;allowArrows=0;connectable=0;expand=0;recursiveResize=0;editable=1;pointerEvents=0;absoluteArcSize=1;points=[[0.25,0,0],[0.5,0,0],[0.75,0,0],[1,0.25,0],[1,0.5,0],[1,0.75,0],[0.75,1,0],[0.5,1,0],[0.25,1,0],[0,0.75,0],[0,0.5,0],[0,0.25,0]];" parent="1" vertex="1"><mxGeometry x="100" y="1150" width="690" height="520" as="geometry"/></mxCell></object><object placeholders="1" c4Name="Portal" c4Type="system" c4Description="" label="&lt;font style=&quot;font-size: 16px&quot;&gt;&lt;b&gt;%c4Name%&lt;/b&gt;&lt;/font&gt;&lt;div&gt;[%c4Type%]&lt;/div&gt;&lt;br&gt;&lt;div&gt;&lt;font style=&quot;font-size: 11px&quot;&gt;&lt;font color=&quot;#cccccc&quot;&gt;%c4Description%&lt;/font&gt;&lt;/div&gt;" id="So58qvO-gp38-perJs6D-36"><mxCell style="rounded=1;whiteSpace=wrap;html=1;labelBackgroundColor=none;fillColor=#1061B0;fontColor=#ffffff;align=center;arcSize=10;strokeColor=#FF9933;metaEdit=1;resizable=0;points=[[0.25,0,0],[0.5,0,0],[0.75,0,0],[1,0.25,0],[1,0.5,0],[1,0.75,0],[0.75,1,0],[0.5,1,0],[0.25,1,0],[0,0.75,0],[0,0.5,0],[0,0.25,0]];strokeWidth=4;" parent="1" vertex="1"><mxGeometry x="130" y="1340" width="240" height="120" as="geometry"/></mxCell></object><object placeholders="1" c4Name="BPDM" c4Type="system" c4Description="" label="&lt;font style=&quot;font-size: 16px&quot;&gt;&lt;b&gt;%c4Name%&lt;/b&gt;&lt;/font&gt;&lt;div&gt;[%c4Type%]&lt;/div&gt;&lt;br&gt;&lt;div&gt;&lt;font style=&quot;font-size: 11px&quot;&gt;&lt;font color=&quot;#cccccc&quot;&gt;%c4Description%&lt;/font&gt;&lt;/div&gt;" id="So58qvO-gp38-perJs6D-37"><mxCell style="rounded=1;whiteSpace=wrap;html=1;labelBackgroundColor=none;fillColor=#1061B0;fontColor=#ffffff;align=center;arcSize=10;strokeColor=#FF9933;metaEdit=1;resizable=0;points=[[0.25,0,0],[0.5,0,0],[0.75,0,0],[1,0.25,0],[1,0.5,0],[1,0.75,0],[0.75,1,0],[0.5,1,0],[0.25,1,0],[0,0.75,0],[0,0.5,0],[0,0.25,0]];strokeWidth=4;" parent="1" vertex="1"><mxGeometry x="490" y="1340" width="240" height="120" as="geometry"/></mxCell></object><object placeholders="1" c4Name="MIW" c4Type="system" c4Description="" label="&lt;font style=&quot;font-size: 16px&quot;&gt;&lt;b&gt;%c4Name%&lt;/b&gt;&lt;/font&gt;&lt;div&gt;[%c4Type%]&lt;/div&gt;&lt;br&gt;&lt;div&gt;&lt;font style=&quot;font-size: 11px&quot;&gt;&lt;font color=&quot;#cccccc&quot;&gt;%c4Description%&lt;/font&gt;&lt;/div&gt;" id="So58qvO-gp38-perJs6D-38"><mxCell style="rounded=1;whiteSpace=wrap;html=1;labelBackgroundColor=none;fillColor=#1061B0;fontColor=#ffffff;align=center;arcSize=10;strokeColor=#00CC66;metaEdit=1;resizable=0;points=[[0.25,0,0],[0.5,0,0],[0.75,0,0],[1,0.25,0],[1,0.5,0],[1,0.75,0],[0.75,1,0],[0.5,1,0],[0.25,1,0],[0,0.75,0],[0,0.5,0],[0,0.25,0]];strokeWidth=4;" parent="1" vertex="1"><mxGeometry x="130" y="1490" width="240" height="120" as="geometry"/></mxCell></object><mxCell id="So58qvO-gp38-perJs6D-39" style="edgeStyle=orthogonalEdgeStyle;rounded=0;orthogonalLoop=1;jettySize=auto;html=1;exitX=0.5;exitY=0;exitDx=0;exitDy=0;exitPerimeter=0;entryX=0.5;entryY=1;entryDx=0;entryDy=0;entryPerimeter=0;strokeColor=#FFFFFF;fontColor=#FFFFFF;" parent="1" source="So58qvO-gp38-perJs6D-36" target="So58qvO-gp38-perJs6D-4" edge="1"><mxGeometry relative="1" as="geometry"/></mxCell><mxCell id="So58qvO-gp38-perJs6D-40" value="configure BPN" style="edgeLabel;html=1;align=center;verticalAlign=middle;resizable=0;points=[];labelBackgroundColor=#000000;fontColor=#FFFFFF;" parent="So58qvO-gp38-perJs6D-39" vertex="1" connectable="0"><mxGeometry x="0.2542" y="1" relative="1" as="geometry"><mxPoint as="offset"/></mxGeometry></mxCell><mxCell id="So58qvO-gp38-perJs6D-41" style="edgeStyle=orthogonalEdgeStyle;rounded=0;orthogonalLoop=1;jettySize=auto;html=1;exitX=1;exitY=0.5;exitDx=0;exitDy=0;exitPerimeter=0;entryX=0;entryY=0.5;entryDx=0;entryDy=0;entryPerimeter=0;startArrow=classic;startFill=1;strokeColor=#FFFFFF;fontColor=#FFFFFF;" parent="1" source="So58qvO-gp38-perJs6D-36" target="So58qvO-gp38-perJs6D-37" edge="1"><mxGeometry relative="1" as="geometry"/></mxCell><mxCell id="So58qvO-gp38-perJs6D-42" value="get BPN" style="edgeLabel;html=1;align=center;verticalAlign=middle;resizable=0;points=[];labelBackgroundColor=#000000;fontColor=#FFFFFF;" parent="So58qvO-gp38-perJs6D-41" vertex="1" connectable="0"><mxGeometry x="0.2182" relative="1" as="geometry"><mxPoint as="offset"/></mxGeometry></mxCell><object placeholders="1" c4Type="Database" c4Container="Container" c4Technology="e.g. PostgreSQL" c4Description="Stores assets, policies ..." label="&lt;font style=&quot;font-size: 16px&quot;&gt;&lt;b&gt;%c4Type%&lt;/b&gt;&lt;/font&gt;&lt;div&gt;[%c4Container%:&amp;nbsp;%c4Technology%]&lt;/div&gt;&lt;br&gt;&lt;div&gt;&lt;font style=&quot;font-size: 11px&quot;&gt;&lt;font color=&quot;#E6E6E6&quot;&gt;%c4Description%&lt;/font&gt;&lt;/div&gt;" id="So58qvO-gp38-perJs6D-43"><mxCell style="shape=cylinder3;size=15;whiteSpace=wrap;html=1;boundedLbl=1;rounded=0;labelBackgroundColor=none;fillColor=#23A2D9;fontSize=12;fontColor=#ffffff;align=center;strokeColor=#00CC66;metaEdit=1;points=[[0.5,0,0],[1,0.25,0],[1,0.5,0],[1,0.75,0],[0.5,1,0],[0,0.75,0],[0,0.5,0],[0,0.25,0]];resizable=0;strokeWidth=4;" parent="1" vertex="1"><mxGeometry x="1220" y="480" width="240" height="120" as="geometry"/></mxCell></object><mxCell id="So58qvO-gp38-perJs6D-44" style="edgeStyle=orthogonalEdgeStyle;rounded=0;orthogonalLoop=1;jettySize=auto;html=1;exitX=1;exitY=0.5;exitDx=0;exitDy=0;exitPerimeter=0;entryX=0;entryY=0.5;entryDx=0;entryDy=0;entryPerimeter=0;startArrow=classic;startFill=1;strokeColor=#FFFFFF;fontColor=#FFFFFF;" parent="1" source="So58qvO-gp38-perJs6D-7" target="So58qvO-gp38-perJs6D-43" edge="1"><mxGeometry relative="1" as="geometry"/></mxCell><object placeholders="1" c4Name="KeyCloak" c4Type="system" c4Description="" label="&lt;font style=&quot;font-size: 16px&quot;&gt;&lt;b&gt;%c4Name%&lt;/b&gt;&lt;/font&gt;&lt;div&gt;[%c4Type%]&lt;/div&gt;&lt;br&gt;&lt;div&gt;&lt;font style=&quot;font-size: 11px&quot;&gt;&lt;font color=&quot;#cccccc&quot;&gt;%c4Description%&lt;/font&gt;&lt;/div&gt;" id="So58qvO-gp38-perJs6D-45"><mxCell style="rounded=1;whiteSpace=wrap;html=1;labelBackgroundColor=none;fillColor=#1061B0;fontColor=#ffffff;align=center;arcSize=10;strokeColor=#00CC66;metaEdit=1;resizable=0;points=[[0.25,0,0],[0.5,0,0],[0.75,0,0],[1,0.25,0],[1,0.5,0],[1,0.75,0],[0.75,1,0],[0.5,1,0],[0.25,1,0],[0,0.75,0],[0,0.5,0],[0,0.25,0]];strokeWidth=4;" parent="1" vertex="1"><mxGeometry x="490" y="1490" width="240" height="120" as="geometry"/></mxCell></object><object placeholders="1" c4Type="Database" c4Container="Container" c4Technology="e.g. PostgreSQL" c4Description="Stores assets, policies ..." label="&lt;font style=&quot;font-size: 16px&quot;&gt;&lt;b&gt;%c4Type%&lt;/b&gt;&lt;/font&gt;&lt;div&gt;[%c4Container%:&amp;nbsp;%c4Technology%]&lt;/div&gt;&lt;br&gt;&lt;div&gt;&lt;font style=&quot;font-size: 11px&quot;&gt;&lt;font color=&quot;#E6E6E6&quot;&gt;%c4Description%&lt;/font&gt;&lt;/div&gt;" id="So58qvO-gp38-perJs6D-46"><mxCell style="shape=cylinder3;size=15;whiteSpace=wrap;html=1;boundedLbl=1;rounded=0;labelBackgroundColor=none;fillColor=#23A2D9;fontSize=12;fontColor=#ffffff;align=center;strokeColor=#00CC66;metaEdit=1;points=[[0.5,0,0],[1,0.25,0],[1,0.5,0],[1,0.75,0],[0.5,1,0],[0,0.75,0],[0,0.5,0],[0,0.25,0]];resizable=0;strokeWidth=4;" parent="1" vertex="1"><mxGeometry x="294" y="690" width="240" height="120" as="geometry"/></mxCell></object><mxCell id="So58qvO-gp38-perJs6D-47" style="edgeStyle=orthogonalEdgeStyle;rounded=0;orthogonalLoop=1;jettySize=auto;html=1;exitX=0.75;exitY=1;exitDx=0;exitDy=0;exitPerimeter=0;entryX=0.5;entryY=0;entryDx=0;entryDy=0;entryPerimeter=0;startArrow=classic;startFill=1;strokeColor=#FFFFFF;fontColor=#FFFFFF;" parent="1" source="So58qvO-gp38-perJs6D-4" target="So58qvO-gp38-perJs6D-46" edge="1"><mxGeometry relative="1" as="geometry"/></mxCell><mxCell id="So58qvO-gp38-perJs6D-48" value="Already included in MXD / Tutorial" style="rounded=1;whiteSpace=wrap;html=1;strokeWidth=4;strokeColor=#00CC66;" parent="1" vertex="1"><mxGeometry x="1118.5" y="1530" width="120" height="60" as="geometry"/></mxCell><mxCell id="So58qvO-gp38-perJs6D-49" value="planned to be included&amp;nbsp; in MXD / Tutorial" style="rounded=1;whiteSpace=wrap;html=1;strokeWidth=4;strokeColor=#FF9933;" parent="1" vertex="1"><mxGeometry x="1290" y="1530" width="120" height="60" as="geometry"/></mxCell><mxCell id="So58qvO-gp38-perJs6D-50" style="edgeStyle=orthogonalEdgeStyle;rounded=0;orthogonalLoop=1;jettySize=auto;html=1;exitX=0.5;exitY=1;exitDx=0;exitDy=0;exitPerimeter=0;entryX=0.475;entryY=0.992;entryDx=0;entryDy=0;entryPerimeter=0;strokeColor=#FFFFFF;fontColor=#FFFFFF;" parent="1" source="So58qvO-gp38-perJs6D-7" target="So58qvO-gp38-perJs6D-36" edge="1"><mxGeometry relative="1" as="geometry"><Array as="points"><mxPoint x="1020" y="640"/><mxPoint x="1210" y="640"/><mxPoint x="1210" y="1470"/><mxPoint x="244" y="1470"/></Array></mxGeometry></mxCell><mxCell id="So58qvO-gp38-perJs6D-51" value="configure BPN" style="edgeLabel;html=1;align=center;verticalAlign=middle;resizable=0;points=[];labelBackgroundColor=#000000;fontColor=#FFFFFF;" parent="So58qvO-gp38-perJs6D-50" vertex="1" connectable="0"><mxGeometry x="-0.6247" relative="1" as="geometry"><mxPoint x="40" y="74" as="offset"/></mxGeometry></mxCell><object placeholders="1" c4Name="AAS Discovery Finder/&#10;AAS Discovery Services" c4Type="system" c4Description="" label="&lt;font style=&quot;font-size: 16px&quot;&gt;&lt;b&gt;%c4Name%&lt;/b&gt;&lt;/font&gt;&lt;div&gt;[%c4Type%]&lt;/div&gt;&lt;br&gt;&lt;div&gt;&lt;font style=&quot;font-size: 11px&quot;&gt;&lt;font color=&quot;#cccccc&quot;&gt;%c4Description%&lt;/font&gt;&lt;/div&gt;" id="3"><mxCell style="rounded=1;whiteSpace=wrap;html=1;labelBackgroundColor=none;fillColor=#1061B0;fontColor=#ffffff;align=center;arcSize=10;strokeColor=#FF9933;metaEdit=1;resizable=0;points=[[0.25,0,0],[0.5,0,0],[0.75,0,0],[1,0.25,0],[1,0.5,0],[1,0.75,0],[0.75,1,0],[0.5,1,0],[0.25,1,0],[0,0.75,0],[0,0.5,0],[0,0.25,0]];strokeWidth=4;" vertex="1" parent="1"><mxGeometry x="490" y="1190" width="240" height="120" as="geometry"/></mxCell></object></root></mxGraphModel></diagram></mxfile>